# xmcd
#
# Track frame offsets:
#	150
#	15941
#	34376
#	50319
#	68680
#	91014
#	111430
#	130714
#	141685
#	159109
#	179543
#	195302
#	214819
#	230653
#	245723
#	260793
#	275416
#	296187
#	307446
#
# Disc length: 4299 seconds
#
# Revision: 0
# Processed by: cddbd v1.5.2PL0 Copyright (c) Steve Scherf et al.
# Submitted via: EasyCDDAExtractor 2010.4.0.0
#
DISCID=2410c913
DTITLE=R. Kelly - 12 play 4th quarter
DYEAR=2008
DGENRE=
TTITLE0=Wanna Make A Baby
TTITLE1=Hair Braider
TTITLE2=Skin
TTITLE3=Screamer
TTITLE4=At the Same Time
TTITLE5=Whole Lotta Kisses
TTITLE6=Might Be Mine
TTITLE7=Son of A Bitch
TTITLE8=Go Low
TTITLE9=Freaky Sensation
TTITLE10=Two Seater
TTITLE11=Playas Get Lonely
TTITLE12=Relief
TTITLE13=I like love
TTITLE14=Crazy (feat. Usher)
TTITLE15=Body body
TTITLE16=Hair braider (remix feat. Star
TTITLE17=Bobble
TTITLE18=Touch my body (remix feat. Mar
EXTD=
EXTT0=
EXTT1=
EXTT2=
EXTT3=
EXTT4=
EXTT5=
EXTT6=
EXTT7=
EXTT8=
EXTT9=
EXTT10=
EXTT11=
EXTT12=
EXTT13=
EXTT14=
EXTT15=
EXTT16=
EXTT17=
EXTT18=
PLAYORDER=
